<svg version="1.1" id="Layer_1" xmlns="http://www.w3.org/2000/svg" xmlns:xlink="http://www.w3.org/1999/xlink" x="0px" y="0px"
	 width="100%" viewBox="0 0 1600 776" enable-background="new 0 0 1600 776" xml:space="preserve">
<path fill="#FEDEEB" opacity="1.000000" stroke="none" 
	d="
M848.000000,0.999998 
	C1098.905884,1.000000 1349.811646,1.000000 1601.000000,1.000000 
	C1601.000000,125.359016 1601.000000,249.718246 1600.723022,374.279572 
	C1599.989136,372.728668 1599.448364,370.992706 1599.088623,369.220001 
	C1596.467163,356.306915 1594.780273,343.124420 1591.103516,330.521454 
	C1582.767090,301.946991 1567.967285,276.678345 1549.901001,253.084793 
	C1534.686890,233.216064 1517.647949,215.061859 1498.403320,199.327484 
	C1478.976440,183.444214 1458.737671,168.351440 1437.687012,154.714706 
	C1417.189575,141.436386 1395.490723,129.907425 1373.794800,118.618858 
	C1357.683472,110.236130 1340.975220,102.859642 1324.099854,96.119408 
	C1298.794556,86.012192 1273.455688,75.758087 1247.498413,67.572639 
	C1215.091187,57.353279 1182.110107,48.911247 1149.239380,40.222183 
	C1133.942139,36.178486 1118.385620,33.017902 1102.830078,30.072720 
	C1082.241211,26.174541 1061.576782,22.632481 1040.872437,19.400770 
	C1022.926758,16.599644 1004.911072,14.178010 986.868774,12.085141 
	C971.587402,10.312529 956.232788,9.137757 940.894104,7.903170 
	C923.070068,6.468529 905.237488,5.102590 887.390259,4.006410 
	C876.618774,3.344825 865.807495,3.350270 855.025085,2.828640 
	C852.659485,2.714199 850.340454,1.634941 848.000000,0.999998 
z"/>
<path fill="#FEDEEB" opacity="1.000000" stroke="none" 
	d="
M1601.000000,404.000000 
	C1601.000000,528.286682 1601.000000,652.573364 1601.000000,777.000000 
	C1350.307495,777.000000 1099.614990,777.000000 848.701294,776.692505 
	C850.581543,775.957275 852.668884,775.252441 854.786621,775.144653 
	C875.659058,774.082886 896.544250,773.256714 917.409973,772.082397 
	C931.792908,771.273010 946.191467,770.401794 960.510498,768.876648 
	C982.189392,766.567688 1003.830566,763.854431 1025.439331,760.952332 
	C1041.143433,758.843323 1056.803223,756.348389 1072.419556,753.658813 
	C1085.583862,751.391479 1098.729370,748.915222 1111.755737,745.968079 
	C1138.951050,739.815063 1166.312744,734.185242 1193.140747,726.677490 
	C1222.688232,718.408813 1251.879639,708.760681 1280.922974,698.826721 
	C1315.682617,686.937561 1349.396362,672.309448 1381.902344,655.238220 
	C1403.692749,643.794495 1425.176514,631.509888 1445.635376,617.859680 
	C1466.224609,604.122253 1486.406738,589.394714 1504.922241,573.015503 
	C1534.602417,546.759705 1560.173218,516.815857 1577.847778,480.752899 
	C1586.711182,462.668243 1593.283203,443.938416 1597.071899,424.193695 
	C1598.364014,417.459167 1599.689697,410.731049 1601.000000,404.000000 
z"/>
<path fill="#FEDEEB" opacity="1.000000" stroke="none" 
	d="
M1.000002,374.000000 
	C1.000000,249.713364 1.000000,125.426743 1.000000,1.000000 
	C251.359161,1.000000 501.718323,1.000000 752.299927,1.303554 
	C749.760742,2.046697 747.008972,2.773135 744.235596,2.868302 
	C737.743652,3.091066 731.223694,2.717980 724.746643,3.109097 
	C705.728943,4.257483 686.724731,5.632522 667.719299,6.976833 
	C658.802307,7.607563 649.864441,8.108006 640.989258,9.130212 
	C622.770020,11.228618 604.566528,13.490831 586.394104,15.961688 
	C567.574585,18.520529 548.708008,20.900524 530.028625,24.279741 
	C507.799286,28.301157 485.735504,33.246803 463.621124,37.892551 
	C421.378326,46.766846 379.926819,58.610676 339.122528,72.552185 
	C299.520050,86.083076 260.853241,101.998489 223.503250,121.025742 
	C197.676437,134.182709 172.546448,148.455154 148.594254,164.814407 
	C124.310249,181.400299 101.260483,199.519409 80.582047,220.425491 
	C58.018200,243.237686 38.423656,268.314514 24.126610,297.318970 
	C14.107139,317.645477 6.928354,338.748566 3.836280,361.233795 
	C3.244405,365.537811 1.963190,369.747040 1.000002,374.000000 
z"/>
<path fill="#FEDEEB" opacity="1.000000" stroke="none" 
	d="
M753.000000,777.000000 
	C502.427490,777.000000 251.854980,777.000000 1.000000,777.000000 
	C1.000000,652.974304 1.000000,528.948425 1.303411,404.691467 
	C2.427400,409.837891 3.131281,415.236237 4.088011,420.589386 
	C9.237889,449.404083 20.005331,476.021149 35.290749,500.932709 
	C51.397617,527.183105 71.755379,549.855164 94.251480,570.603333 
	C115.087662,589.820557 137.580154,607.090454 161.813370,621.801575 
	C183.147766,634.752930 204.856476,647.165588 226.961700,658.743469 
	C243.466034,667.387878 260.618103,674.941101 277.925415,681.872437 
	C303.221924,692.003418 328.569214,702.241760 354.528503,710.424133 
	C386.779175,720.589539 419.609650,728.956360 452.322906,737.595581 
	C467.784912,741.678894 483.484589,744.972473 499.206635,747.933411 
	C519.478760,751.751099 539.850830,755.072632 560.236755,758.242126 
	C578.505432,761.082458 596.816711,763.717224 615.173645,765.900635 
	C630.444153,767.717041 645.797180,768.889648 661.133972,770.087341 
	C679.957275,771.557312 698.794922,772.868225 717.639893,774.027649 
	C727.414795,774.629028 737.223816,774.662109 747.005798,775.173462 
	C749.030151,775.279297 751.003296,776.365601 753.000000,777.000000 
z"/>
<path fill="#E54393" opacity="1.000000" stroke="none" 
	d="
M753.468628,777.000000 
	C751.003296,776.365601 749.030151,775.279297 747.005798,775.173462 
	C737.223816,774.662109 727.414795,774.629028 717.639893,774.027649 
	C698.794922,772.868225 679.957275,771.557312 661.133972,770.087341 
	C645.797180,768.889648 630.444153,767.717041 615.173645,765.900635 
	C596.816711,763.717224 578.505432,761.082458 560.236755,758.242126 
	C539.850830,755.072632 519.478760,751.751099 499.206635,747.933411 
	C483.484589,744.972473 467.784912,741.678894 452.322906,737.595581 
	C419.609650,728.956360 386.779175,720.589539 354.528503,710.424133 
	C328.569214,702.241760 303.221924,692.003418 277.925415,681.872437 
	C260.618103,674.941101 243.466034,667.387878 226.961700,658.743469 
	C204.856476,647.165588 183.147766,634.752930 161.813370,621.801575 
	C137.580154,607.090454 115.087662,589.820557 94.251480,570.603333 
	C71.755379,549.855164 51.397617,527.183105 35.290749,500.932709 
	C20.005331,476.021149 9.237889,449.404083 4.088011,420.589386 
	C3.131281,415.236237 2.427400,409.837891 1.303411,404.230225 
	C1.000000,394.312439 1.000000,384.624878 1.000002,374.468658 
	C1.963190,369.747040 3.244405,365.537811 3.836280,361.233795 
	C6.928354,338.748566 14.107139,317.645477 24.126610,297.318970 
	C38.423656,268.314514 58.018200,243.237686 80.582047,220.425491 
	C101.260483,199.519409 124.310249,181.400299 148.594254,164.814407 
	C172.546448,148.455154 197.676437,134.182709 223.503250,121.025742 
	C260.853241,101.998489 299.520050,86.083076 339.122528,72.552185 
	C379.926819,58.610676 421.378326,46.766846 463.621124,37.892551 
	C485.735504,33.246803 507.799286,28.301157 530.028625,24.279741 
	C548.708008,20.900524 567.574585,18.520529 586.394104,15.961688 
	C604.566528,13.490831 622.770020,11.228618 640.989258,9.130212 
	C649.864441,8.108006 658.802307,7.607563 667.719299,6.976833 
	C686.724731,5.632522 705.728943,4.257483 724.746643,3.109097 
	C731.223694,2.717980 737.743652,3.091066 744.235596,2.868302 
	C747.008972,2.773135 749.760742,2.046697 752.761169,1.303554 
	C784.354248,1.000000 815.708435,1.000000 847.531372,0.999998 
	C850.340454,1.634941 852.659485,2.714199 855.025085,2.828640 
	C865.807495,3.350270 876.618774,3.344825 887.390259,4.006410 
	C905.237488,5.102590 923.070068,6.468529 940.894104,7.903170 
	C956.232788,9.137757 971.587402,10.312529 986.868774,12.085141 
	C1004.911072,14.178010 1022.926758,16.599644 1040.872437,19.400770 
	C1061.576782,22.632481 1082.241211,26.174541 1102.830078,30.072720 
	C1118.385620,33.017902 1133.942139,36.178486 1149.239380,40.222183 
	C1182.110107,48.911247 1215.091187,57.353279 1247.498413,67.572639 
	C1273.455688,75.758087 1298.794556,86.012192 1324.099854,96.119408 
	C1340.975220,102.859642 1357.683472,110.236130 1373.794800,118.618858 
	C1395.490723,129.907425 1417.189575,141.436386 1437.687012,154.714706 
	C1458.737671,168.351440 1478.976440,183.444214 1498.403320,199.327484 
	C1517.647949,215.061859 1534.686890,233.216064 1549.901001,253.084793 
	C1567.967285,276.678345 1582.767090,301.946991 1591.103516,330.521454 
	C1594.780273,343.124420 1596.467163,356.306915 1599.088623,369.220001 
	C1599.448364,370.992706 1599.989136,372.728668 1600.723022,374.740845 
	C1601.000000,384.354218 1601.000000,393.708466 1601.000000,403.531342 
	C1599.689697,410.731049 1598.364014,417.459167 1597.071899,424.193695 
	C1593.283203,443.938416 1586.711182,462.668243 1577.847778,480.752899 
	C1560.173218,516.815857 1534.602417,546.759705 1504.922241,573.015503 
	C1486.406738,589.394714 1466.224609,604.122253 1445.635376,617.859680 
	C1425.176514,631.509888 1403.692749,643.794495 1381.902344,655.238220 
	C1349.396362,672.309448 1315.682617,686.937561 1280.922974,698.826721 
	C1251.879639,708.760681 1222.688232,718.408813 1193.140747,726.677490 
	C1166.312744,734.185242 1138.951050,739.815063 1111.755737,745.968079 
	C1098.729370,748.915222 1085.583862,751.391479 1072.419556,753.658813 
	C1056.803223,756.348389 1041.143433,758.843323 1025.439331,760.952332 
	C1003.830566,763.854431 982.189392,766.567688 960.510498,768.876648 
	C946.191467,770.401794 931.792908,771.273010 917.409973,772.082397 
	C896.544250,773.256714 875.659058,774.082886 854.786621,775.144653 
	C852.668884,775.252441 850.581543,775.957275 848.239990,776.692505 
	C816.645752,777.000000 785.291565,777.000000 753.468628,777.000000 
M19.130342,319.665863 
	C7.904433,350.138702 3.291206,381.321472 7.871837,413.769379 
	C10.552829,432.760773 15.556940,451.005524 23.301266,468.443085 
	C42.856289,512.474243 73.918610,547.697327 110.323456,578.220947 
	C128.522919,593.480286 148.036926,607.440186 168.165100,620.059937 
	C191.109497,634.445251 214.874100,647.772339 239.252319,659.551636 
	C264.383270,671.694580 290.545441,681.762756 316.503326,692.119995 
	C349.693665,705.362854 383.921783,715.542114 418.459167,724.589905 
	C439.543182,730.113281 460.672272,735.720154 482.075104,739.713989 
	C518.427429,746.497437 554.961914,752.361450 591.517761,757.974854 
	C612.749634,761.235107 634.137878,763.599487 655.519531,765.725464 
	C673.980713,767.561157 692.517883,768.756226 711.047485,769.746155 
	C730.287109,770.773987 749.556396,771.739502 768.815491,771.796326 
	C801.611633,771.893188 834.410706,771.316406 867.206787,770.888916 
	C875.503113,770.780762 883.806641,770.354675 892.082825,769.748047 
	C912.567688,768.246643 933.044556,766.625244 953.512939,764.913635 
	C964.233337,764.017090 974.954102,763.031250 985.630188,761.722473 
	C999.733032,759.993469 1013.807129,758.010132 1027.866211,755.949097 
	C1043.719604,753.624878 1059.614746,751.480225 1075.361328,748.555420 
	C1095.968872,744.727722 1116.610718,740.867432 1136.946289,735.841858 
	C1169.004272,727.919434 1201.016357,719.679871 1232.670532,710.301025 
	C1255.134277,703.645264 1277.296997,695.681519 1299.014526,686.872681 
	C1326.267090,675.818909 1353.325562,664.118896 1379.734741,651.199402 
	C1408.128052,637.309326 1435.036987,620.685730 1460.780884,602.197998 
	C1488.109741,582.572144 1513.254395,560.636902 1535.350220,535.216919 
	C1554.296387,513.420532 1569.971802,489.598358 1580.988159,462.829651 
	C1594.658813,429.611389 1599.328491,395.143280 1593.711426,359.667419 
	C1588.364746,325.899017 1574.384155,295.466583 1554.890259,267.591858 
	C1536.427002,241.190796 1513.989136,218.436523 1489.335571,197.782761 
	C1466.175171,178.380035 1441.543213,160.975189 1415.182983,146.359924 
	C1390.038696,132.418854 1364.500244,118.935394 1338.181885,107.431389 
	C1307.916992,94.202316 1276.991211,82.202057 1245.638794,71.824432 
	C1214.946533,61.665318 1183.508911,53.607552 1152.112671,45.772678 
	C1126.343872,39.342163 1100.251831,34.069397 1074.123047,29.262154 
	C1053.015747,25.378784 1031.665894,22.756962 1010.375671,19.938747 
	C988.909485,17.097256 967.417603,14.366979 945.874268,12.217175 
	C927.744385,10.407993 909.539001,9.220825 891.340271,8.272243 
	C871.433716,7.234642 851.493896,6.147049 831.572998,6.224252 
	C796.812683,6.358963 762.049988,7.158420 727.299866,8.104077 
	C710.731750,8.554948 694.167969,9.705584 677.642029,11.034212 
	C656.033691,12.771445 634.437317,14.746978 612.887146,17.091887 
	C594.319824,19.112234 575.759521,21.383240 557.314758,24.294680 
	C537.596680,27.407116 517.917542,30.933140 498.401337,35.117764 
	C469.825867,41.244850 441.203339,47.345169 412.987610,54.901024 
	C386.842255,61.902447 360.886444,69.917496 335.427795,79.096611 
	C306.509674,89.523041 277.851074,100.874863 249.785446,113.405212 
	C218.659790,127.301743 188.386932,143.178848 160.487335,162.947708 
	C140.260284,177.280029 119.841599,191.603088 101.273735,207.937073 
	C85.038933,222.218674 70.633072,238.760727 56.574440,255.286896 
	C40.496479,274.186798 28.591869,295.847717 19.130342,319.665863 
z"/>
<path fill="#FEDEEB" opacity="1.000000" stroke="none" 
	d="
M19.311014,319.322632 
	C28.591869,295.847717 40.496479,274.186798 56.574440,255.286896 
	C70.633072,238.760727 85.038933,222.218674 101.273735,207.937073 
	C119.841599,191.603088 140.260284,177.280029 160.487335,162.947708 
	C188.386932,143.178848 218.659790,127.301743 249.785446,113.405212 
	C277.851074,100.874863 306.509674,89.523041 335.427795,79.096611 
	C360.886444,69.917496 386.842255,61.902447 412.987610,54.901024 
	C441.203339,47.345169 469.825867,41.244850 498.401337,35.117764 
	C517.917542,30.933140 537.596680,27.407116 557.314758,24.294680 
	C575.759521,21.383240 594.319824,19.112234 612.887146,17.091887 
	C634.437317,14.746978 656.033691,12.771445 677.642029,11.034212 
	C694.167969,9.705584 710.731750,8.554948 727.299866,8.104077 
	C762.049988,7.158420 796.812683,6.358963 831.572998,6.224252 
	C851.493896,6.147049 871.433716,7.234642 891.340271,8.272243 
	C909.539001,9.220825 927.744385,10.407993 945.874268,12.217175 
	C967.417603,14.366979 988.909485,17.097256 1010.375671,19.938747 
	C1031.665894,22.756962 1053.015747,25.378784 1074.123047,29.262154 
	C1100.251831,34.069397 1126.343872,39.342163 1152.112671,45.772678 
	C1183.508911,53.607552 1214.946533,61.665318 1245.638794,71.824432 
	C1276.991211,82.202057 1307.916992,94.202316 1338.181885,107.431389 
	C1364.500244,118.935394 1390.038696,132.418854 1415.182983,146.359924 
	C1441.543213,160.975189 1466.175171,178.380035 1489.335571,197.782761 
	C1513.989136,218.436523 1536.427002,241.190796 1554.890259,267.591858 
	C1574.384155,295.466583 1588.364746,325.899017 1593.711426,359.667419 
	C1599.328491,395.143280 1594.658813,429.611389 1580.988159,462.829651 
	C1569.971802,489.598358 1554.296387,513.420532 1535.350220,535.216919 
	C1513.254395,560.636902 1488.109741,582.572144 1460.780884,602.197998 
	C1435.036987,620.685730 1408.128052,637.309326 1379.734741,651.199402 
	C1353.325562,664.118896 1326.267090,675.818909 1299.014526,686.872681 
	C1277.296997,695.681519 1255.134277,703.645264 1232.670532,710.301025 
	C1201.016357,719.679871 1169.004272,727.919434 1136.946289,735.841858 
	C1116.610718,740.867432 1095.968872,744.727722 1075.361328,748.555420 
	C1059.614746,751.480225 1043.719604,753.624878 1027.866211,755.949097 
	C1013.807129,758.010132 999.733032,759.993469 985.630188,761.722473 
	C974.954102,763.031250 964.233337,764.017090 953.512939,764.913635 
	C933.044556,766.625244 912.567688,768.246643 892.082825,769.748047 
	C883.806641,770.354675 875.503113,770.780762 867.206787,770.888916 
	C834.410706,771.316406 801.611633,771.893188 768.815491,771.796326 
	C749.556396,771.739502 730.287109,770.773987 711.047485,769.746155 
	C692.517883,768.756226 673.980713,767.561157 655.519531,765.725464 
	C634.137878,763.599487 612.749634,761.235107 591.517761,757.974854 
	C554.961914,752.361450 518.427429,746.497437 482.075104,739.713989 
	C460.672272,735.720154 439.543182,730.113281 418.459167,724.589905 
	C383.921783,715.542114 349.693665,705.362854 316.503326,692.119995 
	C290.545441,681.762756 264.383270,671.694580 239.252319,659.551636 
	C214.874100,647.772339 191.109497,634.445251 168.165100,620.059937 
	C148.036926,607.440186 128.522919,593.480286 110.323456,578.220947 
	C73.918610,547.697327 42.856289,512.474243 23.301266,468.443085 
	C15.556940,451.005524 10.552829,432.760773 7.871837,413.769379 
	C3.291206,381.321472 7.904433,350.138702 19.311014,319.322632 
M178.930099,514.851501 
	C179.542007,524.821716 185.999481,531.071960 195.988800,531.089111 
	C225.318054,531.139587 254.647507,531.139771 283.976776,531.093933 
	C303.659943,531.063171 322.906494,528.375244 341.326447,521.094543 
	C358.144836,514.446838 372.845123,504.976532 383.189697,489.652771 
	C396.008667,470.663605 399.354492,449.646851 396.064972,427.452393 
	C392.029938,400.228027 376.959625,381.594910 351.104797,371.844086 
	C348.464600,370.848358 345.836670,369.820221 342.494629,368.534607 
	C344.289703,367.288269 345.175171,366.571198 346.150879,366.011383 
	C360.484528,357.788330 370.884399,346.312378 375.963379,330.334320 
	C379.974152,317.716797 379.937164,304.888245 378.095398,291.978424 
	C375.053894,270.658875 363.900970,254.823349 345.092346,244.542999 
	C325.204742,233.672943 303.526947,230.715485 280.605804,230.287872 
	C279.951843,230.194855 279.297913,230.020920 278.643890,230.020477 
	C252.248566,230.002792 225.853210,229.988556 199.457962,230.034958 
	C198.218521,230.037140 196.980057,230.597107 194.945602,230.853836 
	C185.996887,231.089828 177.827698,237.651718 178.341797,249.451721 
	C178.242874,250.940964 178.057602,252.430191 178.057343,253.919449 
	C178.042572,339.041687 178.038712,424.163910 178.076447,509.286133 
	C178.077148,510.868317 178.589584,512.450317 178.930099,514.851501 
M1206.226807,237.245148 
	C1204.759766,239.745911 1202.835449,242.095093 1201.943359,244.786423 
	C1200.866943,248.034286 1200.056030,251.599274 1200.205444,254.979385 
	C1200.584229,263.545807 1201.206177,272.138092 1202.449341,280.614624 
	C1203.102173,285.065613 1206.152344,287.768707 1211.396362,287.208557 
	C1215.285645,286.793152 1219.254517,287.124207 1223.187988,287.123962 
	C1240.729858,287.122833 1258.271729,287.120270 1275.813599,287.122101 
	C1283.987427,287.122955 1283.990845,287.126892 1283.991211,295.075684 
	C1283.994019,371.709564 1283.993774,448.343475 1284.000854,524.977356 
	C1284.001465,531.782349 1286.037354,535.137512 1292.802734,535.994812 
	C1302.788330,537.260132 1312.905029,537.747681 1322.978638,537.956787 
	C1328.199585,538.065247 1333.568604,537.362427 1338.655518,536.134583 
	C1346.169434,534.320984 1347.058228,532.682861 1347.058228,524.986267 
	C1347.059204,448.518951 1347.058472,372.051666 1347.058838,295.584351 
	C1347.058960,287.683319 1347.569702,287.137634 1355.329834,287.131439 
	C1376.441040,287.114563 1397.552246,287.128143 1418.663452,287.113770 
	C1425.831909,287.108887 1428.514771,285.978271 1429.361084,278.924866 
	C1430.573364,268.820862 1430.374878,258.510773 1430.226196,248.296722 
	C1430.156982,243.533478 1429.055786,238.649780 1423.045410,236.009491 
	C1352.356567,235.982010 1281.667603,235.948837 1210.978760,235.968857 
	C1209.596436,235.969254 1208.214233,236.594620 1206.226807,237.245148 
M710.930725,230.862000 
	C702.567078,231.607376 698.132751,234.978256 695.921326,242.965515 
	C695.097778,245.939850 694.989929,249.183075 694.988281,252.303909 
	C694.941956,341.128876 694.951477,429.953827 694.949829,518.778809 
	C694.949707,526.987122 696.731201,529.377197 704.770020,531.048523 
	C718.069580,533.813660 731.610901,534.303406 744.827820,531.678467 
	C755.614441,529.536255 758.450684,528.373047 758.091370,515.861816 
	C757.756653,504.205902 758.019409,492.532776 758.020447,480.867218 
	C758.022400,458.702698 757.972778,436.537781 758.128418,414.374329 
	C758.140747,412.623322 759.541321,409.385132 760.363708,409.363312 
	C771.096741,409.078674 781.953796,407.975159 792.311035,412.185791 
	C805.083191,417.378235 812.394470,428.017029 817.536377,439.730316 
	C829.427429,466.817993 840.612732,494.225525 851.526550,521.724670 
	C854.123901,528.269165 858.200562,531.728027 864.558655,531.901550 
	C878.963745,532.294495 893.401794,532.419434 907.797791,531.882812 
	C917.895386,531.506348 921.160522,525.929138 918.038330,516.315613 
	C916.863586,512.698608 915.754089,509.040527 914.273254,505.545929 
	C904.589783,482.694305 894.977783,459.810059 885.010498,437.081970 
	C877.901855,420.872345 869.151917,405.731262 854.027954,395.398804 
	C852.353455,394.254791 850.789917,392.948334 848.593201,391.273743 
	C850.890320,390.270081 852.372192,389.592468 853.876770,388.969849 
	C874.705688,380.350708 890.589539,366.623566 898.451416,344.974548 
	C904.406677,328.575836 905.065063,311.578339 901.925781,294.601013 
	C897.236877,269.242432 882.430603,251.475967 858.983459,241.172119 
	C840.644470,233.112991 821.240540,230.092514 800.619568,230.277924 
	C799.965759,230.182205 799.312073,230.003128 798.658203,230.002792 
	C770.914612,229.988708 743.170959,229.978638 715.427429,230.029510 
	C714.191711,230.031769 712.957031,230.606171 710.930725,230.862000 
M1136.359863,229.820923 
	C1128.572021,226.878647 1120.976440,223.175827 1112.957275,221.148605 
	C1094.928711,216.590988 1076.610474,214.693069 1057.924805,216.818344 
	C1041.009399,218.742264 1024.446411,221.696548 1008.294495,229.250641 
	C1006.490601,231.605347 1004.638184,233.924622 1002.890503,236.320328 
	C988.565369,255.957458 979.188171,277.884033 973.463257,301.370239 
	C972.115601,306.898773 970.075378,312.460815 973.149231,318.612183 
	C984.870789,342.068512 998.054321,364.526642 1015.015076,384.648834 
	C1017.368042,387.440277 1018.997009,390.841919 1020.371033,394.268097 
	C1011.750061,403.487061 1003.069763,412.651367 994.519775,421.935699 
	C973.386597,444.883728 955.312622,470.147919 938.192871,496.156494 
	C935.956665,499.553925 936.180298,501.757782 938.925476,504.201660 
	C948.085144,512.356140 956.953552,520.877319 966.527161,528.513916 
	C973.004700,533.681030 980.480225,537.597046 987.518127,542.078247 
	C992.209351,535.509094 996.042175,529.500977 1000.506897,524.006226 
	C1015.945068,505.006195 1031.351318,485.968842 1047.286743,467.389221 
	C1054.956787,458.446625 1063.782715,450.495575 1072.766602,442.128967 
	C1074.052368,443.129456 1075.499146,443.979279 1076.598389,445.154327 
	C1084.762939,453.881500 1093.248413,462.348083 1100.890503,471.515625 
	C1114.830444,488.238251 1126.277954,506.661041 1135.912476,526.180969 
	C1139.403564,533.254211 1142.572021,540.486572 1145.949341,547.779541 
	C1147.881470,547.038574 1149.418945,546.500610 1150.909912,545.855286 
	C1151.660156,545.530579 1152.297607,544.953552 1153.034180,544.587708 
	C1167.676880,537.314575 1180.805054,527.965210 1192.935181,516.964111 
	C1196.677979,513.569580 1197.285278,511.481476 1195.127930,507.090454 
	C1185.533569,487.561005 1174.513062,468.878448 1161.552368,451.448547 
	C1149.980957,435.887054 1137.754761,420.806610 1122.841919,408.147675 
	C1120.770020,406.388916 1119.680054,403.473450 1118.699219,400.749908 
	C1121.716187,397.435333 1124.758545,394.143616 1127.745850,390.802429 
	C1146.210938,370.149170 1160.540161,346.848938 1171.514404,321.494385 
	C1173.150024,317.715240 1174.410889,312.975586 1173.667603,309.097595 
	C1169.563599,287.685303 1162.158203,267.366760 1150.701660,248.742966 
	C1146.683228,242.210556 1141.593750,236.336929 1136.359863,229.820923 
M503.896454,430.638123 
	C503.270630,428.588745 502.522125,426.567871 502.038116,424.485535 
	C497.656311,405.634766 496.337494,386.644409 497.819611,367.266754 
	C499.201508,349.198792 502.201843,331.620697 511.233521,315.849487 
	C530.620178,281.996399 555.273743,275.523163 588.258728,279.902618 
	C605.176086,282.148743 619.747314,290.606140 633.216614,300.816956 
	C637.048706,303.722015 641.865234,305.845306 645.615601,303.534363 
	C648.476379,301.771606 650.354492,296.854156 650.832336,293.105835 
	C651.855957,285.076141 652.146729,276.880157 651.885681,268.779724 
	C651.616333,260.423309 650.162415,252.042816 642.383484,246.916946 
	C636.482544,243.028564 630.539062,238.911438 624.059509,236.244736 
	C595.054260,224.307449 564.984436,222.588974 534.527039,229.064499 
	C505.558960,235.223373 481.036377,249.404541 462.735382,272.952209 
	C441.864197,299.806915 432.451721,331.159424 430.240417,364.584900 
	C429.190826,380.450256 429.978668,396.524719 431.087402,412.424011 
	C432.620178,434.404877 438.480957,455.396118 448.939545,474.919891 
	C458.095367,492.011688 470.681396,505.829956 487.209991,516.318604 
	C501.743713,525.541321 517.451843,531.541748 534.239441,533.680664 
	C549.163696,535.582153 564.440125,536.544128 579.428589,535.664124 
	C598.830017,534.525085 617.516052,529.099060 634.862549,519.897766 
	C642.577942,515.805237 650.739746,511.310974 651.470459,501.632507 
	C652.376099,489.638977 652.219055,477.494995 651.496460,465.477600 
	C651.120667,459.227417 645.985474,457.124481 639.972839,459.492157 
	C638.294983,460.152863 636.792297,461.259399 635.210632,462.163727 
	C628.902405,465.770508 622.768127,469.733337 616.252502,472.915497 
	C600.007568,480.849396 582.944702,483.983948 564.746704,482.186890 
	C552.354797,480.963196 541.065247,477.510864 530.992676,470.372589 
	C517.332642,460.692017 509.014648,447.189423 503.896454,430.638123 
z"/>
<path fill="#EE6292" opacity="1.000000" stroke="none" 
	d="
M1118.135498,401.093445 
	C1119.680054,403.473450 1120.770020,406.388916 1122.841919,408.147675 
	C1137.754761,420.806610 1149.980957,435.887054 1161.552368,451.448547 
	C1174.513062,468.878448 1185.533569,487.561005 1195.127930,507.090454 
	C1197.285278,511.481476 1196.677979,513.569580 1192.935181,516.964111 
	C1180.805054,527.965210 1167.676880,537.314575 1153.034180,544.587708 
	C1152.297607,544.953552 1151.660156,545.530579 1150.909912,545.855286 
	C1149.418945,546.500610 1147.881470,547.038574 1145.949341,547.779541 
	C1142.572021,540.486572 1139.403564,533.254211 1135.912476,526.180969 
	C1126.277954,506.661041 1114.830444,488.238251 1100.890503,471.515625 
	C1093.248413,462.348083 1084.762939,453.881500 1076.598389,445.154327 
	C1075.499146,443.979279 1074.052368,443.129456 1072.258667,441.811951 
	C1070.373169,440.052246 1069.064575,438.535492 1067.607300,437.178375 
	C1053.878906,424.393097 1040.127319,411.632629 1026.376099,398.872009 
	C1024.590088,397.214630 1022.767029,395.597107 1020.961121,393.961090 
	C1018.997009,390.841919 1017.368042,387.440277 1015.015076,384.648834 
	C998.054321,364.526642 984.870789,342.068512 973.149231,318.612183 
	C970.075378,312.460815 972.115601,306.898773 973.463257,301.370239 
	C979.188171,277.884033 988.565369,255.957458 1002.890503,236.320328 
	C1004.638184,233.924622 1006.490601,231.605347 1008.778442,229.393677 
	C1020.109924,245.208557 1030.934814,260.896240 1041.837769,276.529480 
	C1043.017578,278.221130 1044.649170,279.597748 1045.907837,281.415833 
	C1045.956055,283.063110 1045.864990,284.557709 1046.425049,285.745209 
	C1052.976318,299.635986 1059.488281,313.548676 1066.314697,327.304657 
	C1069.141235,333.000275 1072.696899,338.334076 1076.067627,344.160522 
	C1086.531250,359.861603 1096.664062,375.363556 1107.287598,390.521606 
	C1110.134888,394.584259 1114.478638,397.598114 1118.135498,401.093445 
z"/>
<path fill="#E9417A" opacity="1.000000" stroke="none" 
	d="
M1020.666077,394.114594 
	C1022.767029,395.597107 1024.590088,397.214630 1026.376099,398.872009 
	C1040.127319,411.632629 1053.878906,424.393097 1067.607300,437.178375 
	C1069.064575,438.535492 1070.373169,440.052246 1071.917969,441.795227 
	C1063.782715,450.495575 1054.956787,458.446625 1047.286743,467.389221 
	C1031.351318,485.968842 1015.945068,505.006195 1000.506897,524.006226 
	C996.042175,529.500977 992.209351,535.509094 987.518127,542.078247 
	C980.480225,537.597046 973.004700,533.681030 966.527161,528.513916 
	C956.953552,520.877319 948.085144,512.356140 938.925476,504.201660 
	C936.180298,501.757782 935.956665,499.553925 938.192871,496.156494 
	C955.312622,470.147919 973.386597,444.883728 994.519775,421.935699 
	C1003.069763,412.651367 1011.750061,403.487061 1020.666077,394.114594 
z"/>
<path fill="#E9417A" opacity="1.000000" stroke="none" 
	d="
M1118.417358,400.921692 
	C1114.478638,397.598114 1110.134888,394.584259 1107.287598,390.521606 
	C1096.664062,375.363556 1086.531250,359.861603 1076.247314,343.887634 
	C1092.135742,326.806213 1105.052490,308.207397 1115.860840,288.114624 
	C1116.411133,287.091736 1115.895752,285.495514 1116.195312,283.998688 
	C1117.368530,282.651642 1118.397827,281.561310 1119.050293,280.279144 
	C1127.163086,264.340271 1132.553467,247.420197 1136.993408,230.162506 
	C1141.593750,236.336929 1146.683228,242.210556 1150.701660,248.742966 
	C1162.158203,267.366760 1169.563599,287.685303 1173.667603,309.097595 
	C1174.410889,312.975586 1173.150024,317.715240 1171.514404,321.494385 
	C1160.540161,346.848938 1146.210938,370.149170 1127.745850,390.802429 
	C1124.758545,394.143616 1121.716187,397.435333 1118.417358,400.921692 
z"/>
<path fill="#D51C60" opacity="1.000000" stroke="none" 
	d="
M1136.676636,229.991714 
	C1132.553467,247.420197 1127.163086,264.340271 1119.050293,280.279144 
	C1118.397827,281.561310 1117.368530,282.651642 1115.795654,283.935944 
	C1092.263184,278.619171 1069.291870,276.923218 1046.071045,281.120544 
	C1044.649170,279.597748 1043.017578,278.221130 1041.837769,276.529480 
	C1030.934814,260.896240 1020.109924,245.208557 1009.080811,229.248825 
	C1024.446411,221.696548 1041.009399,218.742264 1057.924805,216.818344 
	C1076.610474,214.693069 1094.928711,216.590988 1112.957275,221.148605 
	C1120.976440,223.175827 1128.572021,226.878647 1136.676636,229.991714 
z"/>
<path fill="#E4488F" opacity="1.000000" stroke="none" 
	d="
M503.981201,431.029449 
	C509.014648,447.189423 517.332642,460.692017 530.992676,470.372589 
	C541.065247,477.510864 552.354797,480.963196 564.746704,482.186890 
	C582.944702,483.983948 600.007568,480.849396 616.252502,472.915497 
	C622.768127,469.733337 628.902405,465.770508 635.210632,462.163727 
	C636.792297,461.259399 638.294983,460.152863 639.972839,459.492157 
	C645.985474,457.124481 651.120667,459.227417 651.496460,465.477600 
	C652.219055,477.494995 652.376099,489.638977 651.470459,501.632507 
	C650.739746,511.310974 642.577942,515.805237 634.862549,519.897766 
	C617.516052,529.099060 598.830017,534.525085 579.428589,535.664124 
	C564.440125,536.544128 549.163696,535.582153 534.239441,533.680664 
	C517.451843,531.541748 501.743713,525.541321 487.209991,516.318604 
	C470.681396,505.829956 458.095367,492.011688 448.939545,474.919891 
	C438.480957,455.396118 432.620178,434.404877 431.087402,412.424011 
	C429.978668,396.524719 429.190826,380.450256 430.240417,364.584900 
	C432.451721,331.159424 441.864197,299.806915 462.735382,272.952209 
	C481.036377,249.404541 505.558960,235.223373 534.527039,229.064499 
	C564.984436,222.588974 595.054260,224.307449 624.059509,236.244736 
	C630.539062,238.911438 636.482544,243.028564 642.383484,246.916946 
	C650.162415,252.042816 651.616333,260.423309 651.885681,268.779724 
	C652.146729,276.880157 651.855957,285.076141 650.832336,293.105835 
	C650.354492,296.854156 648.476379,301.771606 645.615601,303.534363 
	C641.865234,305.845306 637.048706,303.722015 633.216614,300.816956 
	C619.747314,290.606140 605.176086,282.148743 588.258728,279.902618 
	C555.273743,275.523163 530.620178,281.996399 511.233521,315.849487 
	C502.201843,331.620697 499.201508,349.198792 497.819611,367.266754 
	C496.337494,386.644409 497.656311,405.634766 502.038116,424.485535 
	C502.522125,426.567871 503.270630,428.588745 503.981201,431.029449 
M442.199677,452.266205 
	C442.608002,453.700684 442.825623,455.225250 443.454376,456.555542 
	C449.240784,468.798157 455.211182,480.742584 463.856110,491.538757 
	C475.752930,506.396027 490.664612,516.562195 507.757935,523.602478 
	C526.659241,531.387390 546.665100,533.306946 567.104675,533.202454 
	C591.957947,533.075378 615.034485,527.036011 636.827515,515.529419 
	C643.408447,512.054688 648.632935,506.937683 648.938477,499.052826 
	C649.354431,488.318909 649.216858,477.546570 648.844666,466.807068 
	C648.687805,462.280121 645.218933,460.650085 640.891296,462.624237 
	C636.984436,464.406464 633.055115,466.280701 629.489929,468.647858 
	C607.329651,483.361511 583.209412,488.414276 557.004150,483.988892 
	C532.556396,479.860260 515.897705,465.635193 505.546783,443.762451 
	C497.023804,425.752380 495.057251,406.195923 494.147522,386.608765 
	C493.771606,378.515228 494.102051,370.282745 495.171112,362.254578 
	C496.561493,351.813232 497.752625,341.055603 501.316406,331.266693 
	C505.779785,319.006622 510.633362,306.520111 520.815979,297.239044 
	C528.169128,290.536987 535.373779,283.956177 545.022034,280.370270 
	C556.730225,276.018738 568.767517,275.180603 580.889709,276.156464 
	C591.950195,277.046753 602.874939,279.131805 612.694641,285.062164 
	C621.157288,290.172974 629.789734,295.013672 638.468933,299.750671 
	C643.831787,302.677612 647.392212,300.705963 647.931763,294.438629 
	C648.543091,287.337067 648.587952,280.188782 649.031250,273.070282 
	C649.935791,258.545532 643.384521,248.955811 630.444031,242.589478 
	C607.562988,231.332657 583.584229,227.246445 558.236938,228.826569 
	C540.960205,229.903610 524.569336,233.699142 508.857422,240.847427 
	C491.049408,248.949387 475.930298,260.410309 464.226929,276.176147 
	C455.483093,287.955078 448.480408,300.626068 443.611145,314.560638 
	C438.052155,330.468903 434.251404,346.744751 433.152008,363.490509 
	C432.372528,375.363220 432.951019,387.327271 432.980530,399.250397 
	C433.024902,417.171936 436.710358,434.473816 442.199677,452.266205 
z"/>
<path fill="#E4478F" opacity="1.000000" stroke="none" 
	d="
M801.239014,230.899414 
	C821.240540,230.092514 840.644470,233.112991 858.983459,241.172119 
	C882.430603,251.475967 897.236877,269.242432 901.925781,294.601013 
	C905.065063,311.578339 904.406677,328.575836 898.451416,344.974548 
	C890.589539,366.623566 874.705688,380.350708 853.876770,388.969849 
	C852.372192,389.592468 850.890320,390.270081 848.593201,391.273743 
	C850.789917,392.948334 852.353455,394.254791 854.027954,395.398804 
	C869.151917,405.731262 877.901855,420.872345 885.010498,437.081970 
	C894.977783,459.810059 904.589783,482.694305 914.273254,505.545929 
	C915.754089,509.040527 916.863586,512.698608 918.038330,516.315613 
	C921.160522,525.929138 917.895386,531.506348 907.797791,531.882812 
	C893.401794,532.419434 878.963745,532.294495 864.558655,531.901550 
	C858.200562,531.728027 854.123901,528.269165 851.526550,521.724670 
	C840.612732,494.225525 829.427429,466.817993 817.536377,439.730316 
	C812.394470,428.017029 805.083191,417.378235 792.311035,412.185791 
	C781.953796,407.975159 771.096741,409.078674 760.363708,409.363312 
	C759.541321,409.385132 758.140747,412.623322 758.128418,414.374329 
	C757.972778,436.537781 758.022400,458.702698 758.020447,480.867218 
	C758.019409,492.532776 757.756653,504.205902 758.091370,515.861816 
	C758.450684,528.373047 755.614441,529.536255 744.827820,531.678467 
	C731.610901,534.303406 718.069580,533.813660 704.770020,531.048523 
	C696.731201,529.377197 694.949707,526.987122 694.949829,518.778809 
	C694.951477,429.953827 694.941956,341.128876 694.988281,252.303909 
	C694.989929,249.183075 695.097778,245.939850 695.921326,242.965515 
	C698.132751,234.978256 702.567078,231.607376 711.817261,230.918991 
	C742.215515,230.950470 771.727234,230.924942 801.239014,230.899414 
M697.188965,248.206894 
	C696.793884,250.220367 696.054688,252.233627 696.053345,254.247375 
	C695.996948,341.203949 696.003357,428.160583 696.020874,515.117188 
	C696.021362,517.598083 696.132324,520.089233 696.404968,522.551941 
	C696.464539,523.090027 697.438293,523.526794 698.599670,524.358337 
	C700.314514,525.557800 701.884705,527.455994 703.767151,527.845581 
	C717.884888,530.766724 732.067383,531.148315 746.265320,528.174805 
	C753.924988,526.570496 755.004883,525.348877 755.004517,517.587036 
	C755.003113,482.598419 754.998352,447.609772 754.999695,412.621155 
	C754.999939,406.030762 755.010193,406.026245 761.762146,406.017548 
	C766.593933,406.011292 771.440247,405.777802 776.254578,406.068481 
	C788.160706,406.787384 799.056396,410.073761 807.588806,419.079834 
	C815.028931,426.933014 819.659668,436.403931 823.693237,446.264679 
	C829.151611,459.608215 834.755066,472.892609 840.171448,486.252960 
	C844.712524,497.454285 849.128357,508.707306 853.490112,519.979858 
	C855.297607,524.651184 858.114807,528.144287 863.293518,528.841553 
	C867.722412,529.437866 872.208984,529.973694 876.664185,529.929871 
	C886.126099,529.836914 895.603821,528.824219 905.037903,529.178528 
	C913.585571,529.499634 918.822205,524.898071 914.682983,514.509460 
	C911.746948,507.140656 908.903870,499.727875 905.718933,492.466492 
	C896.522461,471.499359 887.088257,450.636322 877.916687,429.658478 
	C872.269348,416.741608 863.350769,406.545410 852.395081,397.982697 
	C849.371948,395.619843 846.042786,393.648590 841.937256,390.879272 
	C844.317444,389.756134 845.412415,389.130646 846.580261,388.705231 
	C858.498413,384.364044 869.626160,378.702332 878.806091,369.710480 
	C887.518188,361.176819 893.925842,351.271545 897.117981,339.400543 
	C900.867126,325.458069 901.453979,311.533722 899.261597,297.128479 
	C895.450439,272.086670 881.349426,255.420822 859.305237,244.635193 
	C841.481995,235.914749 822.269775,233.278076 802.735474,233.075150 
	C773.747986,232.774002 744.755066,232.987930 715.764465,232.992126 
	C704.550720,232.993759 699.853760,236.960831 697.188965,248.206894 
z"/>
<path fill="#E44691" opacity="1.000000" stroke="none" 
	d="
M1423.967529,236.163437 
	C1429.055786,238.649780 1430.156982,243.533478 1430.226196,248.296722 
	C1430.374878,258.510773 1430.573364,268.820862 1429.361084,278.924866 
	C1428.514771,285.978271 1425.831909,287.108887 1418.663452,287.113770 
	C1397.552246,287.128143 1376.441040,287.114563 1355.329834,287.131439 
	C1347.569702,287.137634 1347.058960,287.683319 1347.058838,295.584351 
	C1347.058472,372.051666 1347.059204,448.518951 1347.058228,524.986267 
	C1347.058228,532.682861 1346.169434,534.320984 1338.655518,536.134583 
	C1333.568604,537.362427 1328.199585,538.065247 1322.978638,537.956787 
	C1312.905029,537.747681 1302.788330,537.260132 1292.802734,535.994812 
	C1286.037354,535.137512 1284.001465,531.782349 1284.000854,524.977356 
	C1283.993774,448.343475 1283.994019,371.709564 1283.991211,295.075684 
	C1283.990845,287.126892 1283.987427,287.122955 1275.813599,287.122101 
	C1258.271729,287.120270 1240.729858,287.122833 1223.187988,287.123962 
	C1219.254517,287.124207 1215.285645,286.793152 1211.396362,287.208557 
	C1206.152344,287.768707 1203.102173,285.065613 1202.449341,280.614624 
	C1201.206177,272.138092 1200.584229,263.545807 1200.205444,254.979385 
	C1200.056030,251.599274 1200.866943,248.034286 1201.943359,244.786423 
	C1202.835449,242.095093 1204.759766,239.745911 1206.907715,237.110031 
	C1208.736938,237.302246 1209.885376,237.629578 1210.787842,238.217865 
	C1206.344971,239.157990 1204.505127,242.462540 1204.334229,245.881546 
	C1203.848389,255.606339 1203.582275,265.387329 1204.083862,275.102112 
	C1204.493774,283.041748 1207.310791,284.997589 1215.270508,284.997284 
	C1236.767456,284.996399 1258.264282,284.996307 1279.761230,284.994019 
	C1286.982300,284.993256 1286.987549,284.990753 1286.987793,292.287659 
	C1286.989502,369.609985 1287.031738,446.932373 1286.892944,524.254456 
	C1286.884033,529.255676 1288.328613,532.318481 1293.297852,533.219299 
	C1298.470459,534.157043 1303.695557,535.751770 1308.856689,535.606079 
	C1318.912476,535.322205 1328.974365,534.279602 1338.947876,532.920166 
	C1340.838867,532.662476 1343.424561,529.677917 1343.795044,527.611633 
	C1344.754517,522.262573 1344.933716,516.723999 1344.938599,511.260712 
	C1345.001587,439.437653 1344.980713,367.614502 1344.979858,295.791382 
	C1344.979736,294.291656 1345.056519,292.785248 1344.944580,291.293427 
	C1344.473633,285.016022 1344.452515,284.997437 1350.807983,284.995056 
	C1373.138062,284.986694 1395.468506,284.924500 1417.797852,285.060913 
	C1421.618042,285.084259 1424.327515,284.061768 1425.477173,280.301941 
	C1426.429565,277.187347 1427.694458,274.043243 1427.901123,270.852600 
	C1428.288208,264.878693 1428.084839,258.860382 1427.985107,252.862869 
	C1427.890137,247.150833 1427.211914,241.604919 1422.117432,237.726959 
	C1422.841675,237.059113 1423.404541,236.611267 1423.967529,236.163437 
z"/>
<path fill="#E5478F" opacity="1.000000" stroke="none" 
	d="
M281.225739,230.904633 
	C303.526947,230.715485 325.204742,233.672943 345.092346,244.542999 
	C363.900970,254.823349 375.053894,270.658875 378.095398,291.978424 
	C379.937164,304.888245 379.974152,317.716797 375.963379,330.334320 
	C370.884399,346.312378 360.484528,357.788330 346.150879,366.011383 
	C345.175171,366.571198 344.289703,367.288269 342.494629,368.534607 
	C345.836670,369.820221 348.464600,370.848358 351.104797,371.844086 
	C376.959625,381.594910 392.029938,400.228027 396.064972,427.452393 
	C399.354492,449.646851 396.008667,470.663605 383.189697,489.652771 
	C372.845123,504.976532 358.144836,514.446838 341.326447,521.094543 
	C322.906494,528.375244 303.659943,531.063171 283.976776,531.093933 
	C254.647507,531.139771 225.318054,531.139587 195.988800,531.089111 
	C185.999481,531.071960 179.542007,524.821716 179.251083,514.430786 
	C180.044281,514.002625 180.516495,513.995300 181.249908,514.246094 
	C182.638260,518.815613 183.090546,523.914856 187.654709,525.853638 
	C191.812210,527.619751 196.560059,528.857178 201.045425,528.850220 
	C229.657333,528.805969 258.271698,527.973450 286.878662,528.207642 
	C299.660461,528.312195 312.163300,526.660522 324.239105,523.438599 
	C335.318756,520.482483 346.167450,515.852173 356.325317,510.464996 
	C367.699036,504.433014 376.972229,495.296570 383.363861,484.009705 
	C393.772156,465.629822 396.835205,445.830444 392.993195,424.979706 
	C390.099487,409.275391 382.520874,396.228851 370.394775,386.049011 
	C361.778931,378.816010 351.658020,374.207947 340.635559,371.670258 
	C338.732483,371.232086 336.935608,370.332855 333.690643,369.126495 
	C338.853943,366.352783 342.645569,364.463593 346.293793,362.329315 
	C358.753235,355.040253 367.633881,344.766357 372.565033,331.067017 
	C377.243805,318.068909 377.408844,305.031036 375.209015,291.447327 
	C372.439758,274.347412 363.969879,261.183838 350.319733,251.254501 
	C331.567291,237.613708 309.390808,234.164124 287.221619,233.296143 
	C257.121307,232.117645 226.938721,232.852203 196.796173,233.190018 
	C193.212204,233.230179 188.993774,235.160233 186.230469,237.554352 
	C180.748550,242.303818 181.132004,249.376663 180.600754,255.909485 
	C179.790726,253.478760 179.357590,251.145859 178.924438,248.812958 
	C177.827698,237.651718 185.996887,231.089828 195.832123,230.913635 
	C224.887680,230.950500 253.056702,230.927567 281.225739,230.904633 
z"/>
<path fill="#E44C95" opacity="1.000000" stroke="none" 
	d="
M178.633118,249.132339 
	C179.357590,251.145859 179.790726,253.478760 180.612793,256.377197 
	C180.997375,342.624481 180.993042,428.306244 180.988708,513.987976 
	C180.516495,513.995300 180.044281,514.002625 179.217651,514.021240 
	C178.589584,512.450317 178.077148,510.868317 178.076447,509.286133 
	C178.038712,424.163910 178.042572,339.041687 178.057343,253.919449 
	C178.057602,252.430191 178.242874,250.940964 178.633118,249.132339 
z"/>
<path fill="#CC4D8D" opacity="1.000000" stroke="none" 
	d="
M1211.033813,237.956909 
	C1209.885376,237.629578 1208.736938,237.302246 1207.210205,236.951660 
	C1208.214233,236.594620 1209.596436,235.969254 1210.978760,235.968857 
	C1281.667603,235.948837 1352.356567,235.982010 1423.506470,236.086456 
	C1423.404541,236.611267 1422.841675,237.059113 1421.796021,237.736206 
	C1420.883545,237.955978 1420.453735,237.946472 1419.716064,237.674133 
	C1415.931763,237.585800 1412.455322,237.760300 1408.511597,237.948105 
	C1344.045166,237.958008 1280.046021,237.954605 1215.938110,237.802063 
	C1215.539917,237.755768 1215.250244,237.858612 1214.567505,237.970139 
	C1213.127441,237.971527 1212.080688,237.964218 1211.033813,237.956909 
z"/>
<path fill="#CC4D8D" opacity="1.000000" stroke="none" 
	d="
M800.929321,230.588684 
	C771.727234,230.924942 742.215515,230.950470 712.212769,230.945038 
	C712.957031,230.606171 714.191711,230.031769 715.427429,230.029510 
	C743.170959,229.978638 770.914612,229.988708 798.658203,230.002792 
	C799.312073,230.003128 799.965759,230.182205 800.929321,230.588684 
z"/>
<path fill="#CC4D8D" opacity="1.000000" stroke="none" 
	d="
M280.915771,230.596252 
	C253.056702,230.927567 224.887680,230.950500 196.229889,230.935364 
	C196.980057,230.597107 198.218521,230.037140 199.457962,230.034958 
	C225.853210,229.988556 252.248566,230.002792 278.643890,230.020477 
	C279.297913,230.020920 279.951843,230.194855 280.915771,230.596252 
z"/>
<path fill="#FEDCEA" opacity="1.000000" stroke="none" 
	d="
M1045.907837,281.415833 
	C1069.291870,276.923218 1092.263184,278.619171 1115.476685,284.103485 
	C1115.895752,285.495514 1116.411133,287.091736 1115.860840,288.114624 
	C1105.052490,308.207397 1092.135742,326.806213 1076.100586,343.559540 
	C1072.696899,338.334076 1069.141235,333.000275 1066.314697,327.304657 
	C1059.488281,313.548676 1052.976318,299.635986 1046.425049,285.745209 
	C1045.864990,284.557709 1045.956055,283.063110 1045.907837,281.415833 
z"/>
<path fill="#FF669B" opacity="1.000000" stroke="none" 
	d="
M442.092957,451.881958 
	C436.710358,434.473816 433.024902,417.171936 432.980530,399.250397 
	C432.951019,387.327271 432.372528,375.363220 433.152008,363.490509 
	C434.251404,346.744751 438.052155,330.468903 443.611145,314.560638 
	C448.480408,300.626068 455.483093,287.955078 464.226929,276.176147 
	C475.930298,260.410309 491.049408,248.949387 508.857422,240.847427 
	C524.569336,233.699142 540.960205,229.903610 558.236938,228.826569 
	C583.584229,227.246445 607.562988,231.332657 630.444031,242.589478 
	C643.384521,248.955811 649.935791,258.545532 649.031250,273.070282 
	C648.587952,280.188782 648.543091,287.337067 647.931763,294.438629 
	C647.392212,300.705963 643.831787,302.677612 638.468933,299.750671 
	C629.789734,295.013672 621.157288,290.172974 612.694641,285.062164 
	C602.874939,279.131805 591.950195,277.046753 580.889709,276.156464 
	C568.767517,275.180603 556.730225,276.018738 545.022034,280.370270 
	C535.373779,283.956177 528.169128,290.536987 520.815979,297.239044 
	C510.633362,306.520111 505.779785,319.006622 501.316406,331.266693 
	C497.752625,341.055603 496.561493,351.813232 495.171112,362.254578 
	C494.102051,370.282745 493.771606,378.515228 494.147522,386.608765 
	C495.057251,406.195923 497.023804,425.752380 505.546783,443.762451 
	C515.897705,465.635193 532.556396,479.860260 557.004150,483.988892 
	C583.209412,488.414276 607.329651,483.361511 629.489929,468.647858 
	C633.055115,466.280701 636.984436,464.406464 640.891296,462.624237 
	C645.218933,460.650085 648.687805,462.280121 648.844666,466.807068 
	C649.216858,477.546570 649.354431,488.318909 648.938477,499.052826 
	C648.632935,506.937683 643.408447,512.054688 636.827515,515.529419 
	C615.034485,527.036011 591.957947,533.075378 567.104675,533.202454 
	C546.665100,533.306946 526.659241,531.387390 507.757935,523.602478 
	C490.664612,516.562195 475.752930,506.396027 463.856110,491.538757 
	C455.211182,480.742584 449.240784,468.798157 443.454376,456.555542 
	C442.825623,455.225250 442.608002,453.700684 442.092957,451.881958 
z"/>
<path fill="#FF669A" opacity="1.000000" stroke="none" 
	d="
M697.958313,247.984131 
	C699.853760,236.960831 704.550720,232.993759 715.764465,232.992126 
	C744.755066,232.987930 773.747986,232.774002 802.735474,233.075150 
	C822.269775,233.278076 841.481995,235.914749 859.305237,244.635193 
	C881.349426,255.420822 895.450439,272.086670 899.261597,297.128479 
	C901.453979,311.533722 900.867126,325.458069 897.117981,339.400543 
	C893.925842,351.271545 887.518188,361.176819 878.806091,369.710480 
	C869.626160,378.702332 858.498413,384.364044 846.580261,388.705231 
	C845.412415,389.130646 844.317444,389.756134 841.937256,390.879272 
	C846.042786,393.648590 849.371948,395.619843 852.395081,397.982697 
	C863.350769,406.545410 872.269348,416.741608 877.916687,429.658478 
	C887.088257,450.636322 896.522461,471.499359 905.718933,492.466492 
	C908.903870,499.727875 911.746948,507.140656 914.682983,514.509460 
	C918.822205,524.898071 913.585571,529.499634 905.037903,529.178528 
	C895.603821,528.824219 886.126099,529.836914 876.664185,529.929871 
	C872.208984,529.973694 867.722412,529.437866 863.293518,528.841553 
	C858.114807,528.144287 855.297607,524.651184 853.490112,519.979858 
	C849.128357,508.707306 844.712524,497.454285 840.171448,486.252960 
	C834.755066,472.892609 829.151611,459.608215 823.693237,446.264679 
	C819.659668,436.403931 815.028931,426.933014 807.588806,419.079834 
	C799.056396,410.073761 788.160706,406.787384 776.254578,406.068481 
	C771.440247,405.777802 766.593933,406.011292 761.762146,406.017548 
	C755.010193,406.026245 754.999939,406.030762 754.999695,412.621155 
	C754.998352,447.609772 755.003113,482.598419 755.004517,517.587036 
	C755.004883,525.348877 753.924988,526.570496 746.265320,528.174805 
	C732.067383,531.148315 717.884888,530.766724 703.767151,527.845581 
	C701.884705,527.455994 700.314514,525.557800 698.295532,523.714478 
	C697.992676,436.622772 697.994507,350.174835 697.993469,263.726929 
	C697.993408,258.479340 697.970581,253.231735 697.958313,247.984131 
M763.078491,275.967377 
	C756.665649,274.855133 755.030029,275.655243 755.023010,280.230103 
	C754.982361,306.702057 755.061523,333.174408 754.934448,359.645813 
	C754.916931,363.304932 756.348389,364.146484 759.662476,364.072723 
	C767.483582,363.898499 775.324585,363.729248 783.133423,364.086456 
	C796.911865,364.716705 810.198730,363.382202 822.290894,356.048889 
	C831.613403,350.395233 837.728149,342.118225 839.881592,331.592682 
	C841.193787,325.178406 840.934814,318.387817 840.904297,311.768494 
	C840.871155,304.583588 837.851746,298.056915 833.733215,292.552063 
	C826.404419,282.756439 815.747131,277.997131 803.804077,277.154388 
	C790.565186,276.220215 777.252380,276.333374 763.078491,275.967377 
z"/>
<path fill="#F44392" opacity="1.000000" stroke="none" 
	d="
M697.573608,248.095520 
	C697.970581,253.231735 697.993408,258.479340 697.993469,263.726929 
	C697.994507,350.174835 697.992676,436.622772 697.991211,523.540405 
	C697.438293,523.526794 696.464539,523.090027 696.404968,522.551941 
	C696.132324,520.089233 696.021362,517.598083 696.020874,515.117188 
	C696.003357,428.160583 695.996948,341.203949 696.053345,254.247375 
	C696.054688,252.233627 696.793884,250.220367 697.573608,248.095520 
z"/>
<path fill="#FF669A" opacity="1.000000" stroke="none" 
	d="
M1420.023926,237.936951 
	C1420.453735,237.946472 1420.883545,237.955978 1421.634766,237.956238 
	C1427.211914,241.604919 1427.890137,247.150833 1427.985107,252.862869 
	C1428.084839,258.860382 1428.288208,264.878693 1427.901123,270.852600 
	C1427.694458,274.043243 1426.429565,277.187347 1425.477173,280.301941 
	C1424.327515,284.061768 1421.618042,285.084259 1417.797852,285.060913 
	C1395.468506,284.924500 1373.138062,284.986694 1350.807983,284.995056 
	C1344.452515,284.997437 1344.473633,285.016022 1344.944580,291.293427 
	C1345.056519,292.785248 1344.979736,294.291656 1344.979858,295.791382 
	C1344.980713,367.614502 1345.001587,439.437653 1344.938599,511.260712 
	C1344.933716,516.723999 1344.754517,522.262573 1343.795044,527.611633 
	C1343.424561,529.677917 1340.838867,532.662476 1338.947876,532.920166 
	C1328.974365,534.279602 1318.912476,535.322205 1308.856689,535.606079 
	C1303.695557,535.751770 1298.470459,534.157043 1293.297852,533.219299 
	C1288.328613,532.318481 1286.884033,529.255676 1286.892944,524.254456 
	C1287.031738,446.932373 1286.989502,369.609985 1286.987793,292.287659 
	C1286.987549,284.990753 1286.982300,284.993256 1279.761230,284.994019 
	C1258.264282,284.996307 1236.767456,284.996399 1215.270508,284.997284 
	C1207.310791,284.997589 1204.493774,283.041748 1204.083862,275.102112 
	C1203.582275,265.387329 1203.848389,255.606339 1204.334229,245.881546 
	C1204.505127,242.462540 1206.344971,239.157990 1210.787842,238.217865 
	C1212.080688,237.964218 1213.127441,237.971527 1214.839355,237.980927 
	C1215.685059,237.972397 1215.865845,237.961807 1216.046753,237.951202 
	C1280.046021,237.954605 1344.045166,237.958008 1408.805908,238.233307 
	C1413.052979,238.315781 1416.538452,238.126358 1420.023926,237.936951 
z"/>
<path fill="#FF669A" opacity="1.000000" stroke="none" 
	d="
M181.249908,514.246094 
	C180.993042,428.306244 180.997375,342.624481 180.989655,256.475037 
	C181.132004,249.376663 180.748550,242.303818 186.230469,237.554352 
	C188.993774,235.160233 193.212204,233.230179 196.796173,233.190018 
	C226.938721,232.852203 257.121307,232.117645 287.221619,233.296143 
	C309.390808,234.164124 331.567291,237.613708 350.319733,251.254501 
	C363.969879,261.183838 372.439758,274.347412 375.209015,291.447327 
	C377.408844,305.031036 377.243805,318.068909 372.565033,331.067017 
	C367.633881,344.766357 358.753235,355.040253 346.293793,362.329315 
	C342.645569,364.463593 338.853943,366.352783 333.690643,369.126495 
	C336.935608,370.332855 338.732483,371.232086 340.635559,371.670258 
	C351.658020,374.207947 361.778931,378.816010 370.394775,386.049011 
	C382.520874,396.228851 390.099487,409.275391 392.993195,424.979706 
	C396.835205,445.830444 393.772156,465.629822 383.363861,484.009705 
	C376.972229,495.296570 367.699036,504.433014 356.325317,510.464996 
	C346.167450,515.852173 335.318756,520.482483 324.239105,523.438599 
	C312.163300,526.660522 299.660461,528.312195 286.878662,528.207642 
	C258.271698,527.973450 229.657333,528.805969 201.045425,528.850220 
	C196.560059,528.857178 191.812210,527.619751 187.654709,525.853638 
	C183.090546,523.914856 182.638260,518.815613 181.249908,514.246094 
M237.027725,451.500000 
	C237.027771,459.993103 236.980911,468.486664 237.062912,476.978973 
	C237.081894,478.945374 237.105774,481.121796 237.933990,482.804565 
	C238.608475,484.175018 240.494400,485.863525 241.832581,485.854492 
	C259.115021,485.737671 276.435242,485.956116 293.665436,484.843689 
	C310.966431,483.726685 324.448700,476.263702 331.738739,459.145538 
	C337.787476,444.942139 334.813843,423.666534 324.158142,412.617767 
	C313.367096,401.428589 299.374603,398.065582 284.822327,397.207123 
	C270.716187,396.374969 256.520813,397.148193 242.368286,396.953278 
	C238.130997,396.894928 236.921234,398.502808 236.962158,402.539398 
	C237.124237,418.524841 237.028183,434.512909 237.027725,451.500000 
M316.196625,296.508362 
	C314.188446,293.514191 312.599945,290.098999 310.095551,287.602631 
	C301.688599,279.222717 290.927277,275.714996 279.444092,275.154205 
	C267.147644,274.553650 254.797165,275.144989 242.474884,274.939606 
	C238.343094,274.870697 236.933090,276.264343 236.958527,280.410858 
	C237.101578,303.728821 237.119461,327.048798 236.949844,350.366394 
	C236.917725,354.781342 238.432388,356.161774 242.749878,356.087708 
	C255.571579,355.867706 268.400787,356.113129 281.224091,355.948242 
	C291.239441,355.819519 300.171448,352.204193 307.151794,345.178711 
	C320.817871,331.424316 321.975616,314.881195 316.196625,296.508362 
z"/>
<path fill="#E44691" opacity="1.000000" stroke="none" 
	d="
M1419.716064,237.674118 
	C1416.538452,238.126358 1413.052979,238.315781 1409.273193,238.220001 
	C1412.455322,237.760300 1415.931763,237.585800 1419.716064,237.674118 
z"/>
<path fill="#E44691" opacity="1.000000" stroke="none" 
	d="
M1215.938110,237.802063 
	C1215.865845,237.961807 1215.685059,237.972397 1215.232544,237.972229 
	C1215.250244,237.858612 1215.539917,237.755768 1215.938110,237.802063 
z"/>
<path fill="#E4478F" opacity="1.000000" stroke="none" 
	d="
M763.525146,275.978912 
	C777.252380,276.333374 790.565186,276.220215 803.804077,277.154388 
	C815.747131,277.997131 826.404419,282.756439 833.733215,292.552063 
	C837.851746,298.056915 840.871155,304.583588 840.904297,311.768494 
	C840.934814,318.387817 841.193787,325.178406 839.881592,331.592682 
	C837.728149,342.118225 831.613403,350.395233 822.290894,356.048889 
	C810.198730,363.382202 796.911865,364.716705 783.133423,364.086456 
	C775.324585,363.729248 767.483582,363.898499 759.662476,364.072723 
	C756.348389,364.146484 754.916931,363.304932 754.934448,359.645813 
	C755.061523,333.174408 754.982361,306.702057 755.023010,280.230103 
	C755.030029,275.655243 756.665649,274.855133 763.525146,275.978912 
M763.665405,279.001373 
	C760.984680,279.109070 757.942139,278.090149 757.968567,282.852570 
	C758.107300,307.813263 758.041748,332.775208 757.986450,357.736603 
	C757.980652,360.348267 758.709595,361.929535 761.614075,361.801727 
	C775.674438,361.183105 789.906677,361.732361 803.752808,359.676819 
	C821.018555,357.113647 833.518433,347.506470 837.645142,329.370728 
	C840.383301,317.336975 838.634216,305.975891 832.011963,295.620422 
	C824.261536,283.500732 811.614075,280.285797 798.558899,279.264313 
	C787.309998,278.384186 775.941406,279.033905 763.665405,279.001373 
z"/>
<path fill="#E4478F" opacity="1.000000" stroke="none" 
	d="
M237.027771,451.000000 
	C237.028183,434.512909 237.124237,418.524841 236.962158,402.539398 
	C236.921234,398.502808 238.130997,396.894928 242.368286,396.953278 
	C256.520813,397.148193 270.716187,396.374969 284.822327,397.207123 
	C299.374603,398.065582 313.367096,401.428589 324.158142,412.617767 
	C334.813843,423.666534 337.787476,444.942139 331.738739,459.145538 
	C324.448700,476.263702 310.966431,483.726685 293.665436,484.843689 
	C276.435242,485.956116 259.115021,485.737671 241.832581,485.854492 
	C240.494400,485.863525 238.608475,484.175018 237.933990,482.804565 
	C237.105774,481.121796 237.081894,478.945374 237.062912,476.978973 
	C236.980911,468.486664 237.027771,459.993103 237.027771,451.000000 
M289.199402,482.941681 
	C294.539459,481.949921 300.041870,481.480835 305.193085,479.880951 
	C336.981689,470.007874 339.130890,430.627563 320.362091,412.905334 
	C310.367615,403.468109 297.739105,400.826508 284.738739,400.218597 
	C271.614716,399.604828 258.438507,400.183899 245.288513,400.000488 
	C241.461258,399.947144 240.004929,401.043457 240.029633,405.075134 
	C240.178650,429.381348 240.177200,453.689392 240.030792,477.995636 
	C240.006485,482.030762 241.475677,483.087433 245.299942,483.038635 
	C259.615540,482.855957 273.934814,482.960571 289.199402,482.941681 
z"/>
<path fill="#E4488F" opacity="1.000000" stroke="none" 
	d="
M316.366272,296.860107 
	C321.975616,314.881195 320.817871,331.424316 307.151794,345.178711 
	C300.171448,352.204193 291.239441,355.819519 281.224091,355.948242 
	C268.400787,356.113129 255.571579,355.867706 242.749878,356.087708 
	C238.432388,356.161774 236.917725,354.781342 236.949844,350.366394 
	C237.119461,327.048798 237.101578,303.728821 236.958527,280.410858 
	C236.933090,276.264343 238.343094,274.870697 242.474884,274.939606 
	C254.797165,275.144989 267.147644,274.553650 279.444092,275.154205 
	C290.927277,275.714996 301.688599,279.222717 310.095551,287.602631 
	C312.599945,290.098999 314.188446,293.514191 316.366272,296.860107 
M240.093369,285.650513 
	C240.095032,306.617493 240.163284,327.584839 240.035934,348.551056 
	C240.013443,352.251404 240.826370,354.061523 244.991074,353.899963 
	C257.593414,353.411102 270.223358,353.504974 282.810455,352.799255 
	C291.047943,352.337433 298.683929,349.497620 304.773621,343.595215 
	C315.901947,332.809113 318.207306,319.531189 315.400085,304.889313 
	C312.972137,292.225616 305.129730,284.352448 293.083069,280.802856 
	C287.764252,279.235657 282.102539,278.369324 276.556641,278.137146 
	C266.589905,277.719910 256.593048,278.018127 246.608795,278.023590 
	C240.165970,278.027130 240.165970,278.032043 240.093369,285.650513 
z"/>
<path fill="#FEDCEB" opacity="1.000000" stroke="none" 
	d="
M764.145569,279.004303 
	C775.941406,279.033905 787.309998,278.384186 798.558899,279.264313 
	C811.614075,280.285797 824.261536,283.500732 832.011963,295.620422 
	C838.634216,305.975891 840.383301,317.336975 837.645142,329.370728 
	C833.518433,347.506470 821.018555,357.113647 803.752808,359.676819 
	C789.906677,361.732361 775.674438,361.183105 761.614075,361.801727 
	C758.709595,361.929535 757.980652,360.348267 757.986450,357.736603 
	C758.041748,332.775208 758.107300,307.813263 757.968567,282.852570 
	C757.942139,278.090149 760.984680,279.109070 764.145569,279.004303 
z"/>
<path fill="#FEDCEB" opacity="1.000000" stroke="none" 
	d="
M288.726044,482.949554 
	C273.934814,482.960571 259.615540,482.855957 245.299942,483.038635 
	C241.475677,483.087433 240.006485,482.030762 240.030792,477.995636 
	C240.177200,453.689392 240.178650,429.381348 240.029633,405.075134 
	C240.004929,401.043457 241.461258,399.947144 245.288513,400.000488 
	C258.438507,400.183899 271.614716,399.604828 284.738739,400.218597 
	C297.739105,400.826508 310.367615,403.468109 320.362091,412.905334 
	C339.130890,430.627563 336.981689,470.007874 305.193085,479.880951 
	C300.041870,481.480835 294.539459,481.949921 288.726044,482.949554 
z"/>
<path fill="#FEDCEB" opacity="1.000000" stroke="none" 
	d="
M240.093506,285.174133 
	C240.165970,278.032043 240.165970,278.027130 246.608795,278.023590 
	C256.593048,278.018127 266.589905,277.719910 276.556641,278.137146 
	C282.102539,278.369324 287.764252,279.235657 293.083069,280.802856 
	C305.129730,284.352448 312.972137,292.225616 315.400085,304.889313 
	C318.207306,319.531189 315.901947,332.809113 304.773621,343.595215 
	C298.683929,349.497620 291.047943,352.337433 282.810455,352.799255 
	C270.223358,353.504974 257.593414,353.411102 244.991074,353.899963 
	C240.826370,354.061523 240.013443,352.251404 240.035934,348.551056 
	C240.163284,327.584839 240.095032,306.617493 240.093506,285.174133 
z"/>
</svg>